<?xml version="1.0" encoding="utf-8"?>
<svg viewBox="75.439 380.885 126.244 126.239" width="126.244" height="126.239" xmlns="http://www.w3.org/2000/svg">
  <defs>
    <style type="text/css">
	.st0{fill:#8D41F1;}
	.st1{fill:#FFFFFF;}
	.st2{fill:#26DCC2;}
	.st3{fill:#535353;}
	.st4{fill:#F3B900;}
	.st5{fill:#0847FD;}
	.st6{opacity:0.45;}
	.st7{clip-path:url(#SVGID_00000131349496370738053690000017657704436648845234_);}
	.st8{clip-path:url(#SVGID_00000183941691822175144330000010508703845771090338_);}
	.st9{filter:url(#Adobe_OpacityMaskFilter);}
	.st10{fill:url(#SVGID_00000160169768430641546560000011017630667665643655_);}
	.st11{mask:url(#SVGID_00000145767313976523942940000012358161721397309087_);fill-rule:evenodd;clip-rule:evenodd;fill:#26DCC2;}
	.st12{filter:url(#Adobe_OpacityMaskFilter_00000032638510943997913260000009857468030609556119_);}
	.st13{fill:url(#SVGID_00000076575586538048235530000012589645655093077686_);}
	.st14{mask:url(#SVGID_00000033366262052006632170000006758845293637987518_);fill-rule:evenodd;clip-rule:evenodd;fill:#3D74FF;}
	.st15{filter:url(#Adobe_OpacityMaskFilter_00000163071525920600901750000006746468128981477264_);}
	.st16{fill:url(#SVGID_00000145049424544933837060000016401735014907835010_);}
	.st17{mask:url(#SVGID_00000006698905384359439310000014034467572916980637_);fill-rule:evenodd;clip-rule:evenodd;fill:#0022B9;}
	.st18{filter:url(#Adobe_OpacityMaskFilter_00000015345083784249448840000004561062052022502846_);}
	.st19{fill:url(#SVGID_00000017489190215490198080000006990791927802333593_);}
	.st20{mask:url(#SVGID_00000070089116489269767790000011409541003096397208_);fill-rule:evenodd;clip-rule:evenodd;fill:#3D74FF;}
	.st21{filter:url(#Adobe_OpacityMaskFilter_00000170238428599699308780000002835450138895299254_);}
	.st22{fill:url(#SVGID_00000127760244033202928680000003183005645256001926_);}
	.st23{mask:url(#SVGID_00000140735394502710147380000001093568043691211936_);fill-rule:evenodd;clip-rule:evenodd;fill:#002CF2;}
	.st24{opacity:0.25;}
	.st25{fill:#00D3AE;}
	.st26{fill:#975CFA;}
	.st27{fill:#FACC00;}
	.st28{fill:#F8D441;}
	.st29{fill:#002CF2;}
	.st30{opacity:0.25;fill:#0847FD;}
	.st31{opacity:0.85;fill:url(#SVGID_00000128447147874659533300000013383337614320756622_);}
	.st32{fill-rule:evenodd;clip-rule:evenodd;fill:#FFFFFF;}
	.st33{fill:#FDD703;}
	.st34{fill:#61EACF;}
	.st35{fill:#3D74FF;}
	.st36{opacity:0.85;}
	.st37{fill:none;stroke:#26DCC2;stroke-miterlimit:10;}
	.st38{fill:#FADB77;}
	.st39{fill:#668BFF;}
	.st40{fill:#7E52DD;}
	.st41{opacity:0.25;fill:#FFFFFF;}
	.st42{fill:#00BF94;}
	.st43{fill:#8AEAD2;}
	.st44{fill:#1454F1;}
	.st45{fill:none;stroke:#FFFFFF;stroke-miterlimit:10;stroke-dasharray:3.0047,3.0047;}
	.st46{fill:none;stroke:#FFFFFF;stroke-miterlimit:10;stroke-dasharray:3;}
	.st47{fill:none;stroke:#668BFF;stroke-miterlimit:10;stroke-dasharray:3;}
	.st48{fill:#26260A;}
	.st49{fill:#F6A18A;}
	.st50{fill:#FF737D;}
	.st51{fill:#C7C7C7;}
	.st52{fill-rule:evenodd;clip-rule:evenodd;fill:#0847FD;}
	.st53{clip-path:url(#SVGID_00000052784939231379146460000014550204297514432389_);fill:#0847FD;}
	.st54{opacity:0.45;clip-path:url(#SVGID_00000052784939231379146460000014550204297514432389_);}
	.st55{clip-path:url(#SVGID_00000126314125059783649550000016003051837306827942_);}
	.st56{clip-path:url(#SVGID_00000163031189977217648940000011878270395033076357_);}
	.st57{filter:url(#Adobe_OpacityMaskFilter_00000149371584487952074900000007003945079495060876_);}
	.st58{fill:url(#SVGID_00000089567246508396067830000013134699783623549072_);}
	.st59{mask:url(#SVGID_00000072242812916128450380000005186056321028945062_);fill-rule:evenodd;clip-rule:evenodd;fill:#26DCC2;}
	.st60{filter:url(#Adobe_OpacityMaskFilter_00000013889028748148217680000003783022121263733422_);}
	.st61{fill:url(#SVGID_00000074422498415657190300000005935824761285187212_);}
	.st62{mask:url(#SVGID_00000129896263763048081390000001993224511139509689_);fill-rule:evenodd;clip-rule:evenodd;fill:#3D74FF;}
	.st63{filter:url(#Adobe_OpacityMaskFilter_00000029745424986920090930000005670016069236208783_);}
	.st64{fill:url(#SVGID_00000088818455543495074350000003359872248351032971_);}
	.st65{mask:url(#SVGID_00000173151555732843456800000013687579426413302166_);fill-rule:evenodd;clip-rule:evenodd;fill:#0022B9;}
	.st66{filter:url(#Adobe_OpacityMaskFilter_00000167396979153258815630000012041268565171721120_);}
	.st67{fill:url(#SVGID_00000052786266163332606600000014686303342093276291_);}
	.st68{mask:url(#SVGID_00000174568040765289995940000017820545084347215799_);fill-rule:evenodd;clip-rule:evenodd;fill:#3D74FF;}
	.st69{filter:url(#Adobe_OpacityMaskFilter_00000139290971905510451600000005608902197778706319_);}
	.st70{fill:url(#SVGID_00000023246613408853454750000003825401540045813658_);}
	.st71{mask:url(#SVGID_00000129179505343346541230000012742052907431777447_);fill-rule:evenodd;clip-rule:evenodd;fill:#002CF2;}
	.st72{opacity:0.25;clip-path:url(#SVGID_00000052784939231379146460000014550204297514432389_);}
	.st73{opacity:0.25;clip-path:url(#SVGID_00000052784939231379146460000014550204297514432389_);fill:#0847FD;}
	.st74{clip-path:url(#SVGID_00000052784939231379146460000014550204297514432389_);}
	.st75{font-family:'Mont-Regular';}
	.st76{font-size:68.9117px;}
	.st77{letter-spacing:-3;}
	.st78{font-family:'Mont-Heavy';}
	.st79{font-family:'Mont-Bold';}
	.st80{font-size:16.9504px;}
	.st81{font-size:32.6027px;}
	.st82{opacity:0.85;clip-path:url(#SVGID_00000052784939231379146460000014550204297514432389_);}
	.st83{font-family:'Mont-Book';}
	.st84{font-size:12px;}
	.st85{clip-path:url(#SVGID_00000052784939231379146460000014550204297514432389_);fill:#FFFFFF;}
	.st86{clip-path:url(#SVGID_00000052784939231379146460000014550204297514432389_);fill:#975CFA;}
	.st87{clip-path:url(#SVGID_00000052784939231379146460000014550204297514432389_);fill:#F8D441;}
	.st88{font-size:17.4792px;}
	.st89{fill:none;}
	.st90{font-size:20px;}
	.st91{fill:#2F48EE;}
	.st92{letter-spacing:1;}
	.st93{font-size:14px;}
	.st94{fill:none;stroke:#0847FD;stroke-miterlimit:10;}
	.st95{clip-path:url(#SVGID_00000087370936569732169570000010705876368435605892_);}
	
		.st96{clip-path:url(#SVGID_00000170245089495174020070000010801103414622705087_);fill:url(#SVGID_00000165950831877767350440000018066043650346395827_);}
	
		.st97{clip-path:url(#SVGID_00000170245089495174020070000010801103414622705087_);fill:url(#SVGID_00000001656080057985288950000005769103388251315383_);}
	
		.st98{clip-path:url(#SVGID_00000170245089495174020070000010801103414622705087_);fill:url(#SVGID_00000165917380425608895320000005658058520317787818_);}
	
		.st99{clip-path:url(#SVGID_00000170245089495174020070000010801103414622705087_);fill:url(#SVGID_00000023249136701361870570000007666922128178347660_);}
	
		.st100{clip-path:url(#SVGID_00000170245089495174020070000010801103414622705087_);fill:url(#SVGID_00000181800675353792055900000016936559644745346200_);}
	
		.st101{clip-path:url(#SVGID_00000170245089495174020070000010801103414622705087_);fill:url(#SVGID_00000083806217871277440530000009385188220726784162_);}
	
		.st102{opacity:0.5;clip-path:url(#SVGID_00000087370936569732169570000010705876368435605892_);fill:url(#SVGID_00000048485419471928875540000016736040268763163282_);}
	
		.st103{clip-path:url(#SVGID_00000087370936569732169570000010705876368435605892_);fill:url(#SVGID_00000037681591865895173280000013376112701785502891_);}
	
		.st104{clip-path:url(#SVGID_00000087370936569732169570000010705876368435605892_);fill:none;stroke:#535353;stroke-miterlimit:10;}
	.st105{opacity:0.35;fill:#3D74FF;}
	.st106{fill:url(#SVGID_00000075124225725102689310000016245138049029026982_);}
	
		.st107{clip-path:url(#SVGID_00000087370936569732169570000010705876368435605892_);fill:none;stroke:#00BF94;stroke-width:3;stroke-miterlimit:10;}
	.st108{clip-path:url(#SVGID_00000087370936569732169570000010705876368435605892_);fill:#00BF94;}
	.st109{clip-path:url(#SVGID_00000087370936569732169570000010705876368435605892_);fill:#0847FD;}
	
		.st110{clip-path:url(#SVGID_00000087370936569732169570000010705876368435605892_);fill:none;stroke:#8D41F1;stroke-width:3;stroke-miterlimit:10;}
	.st111{clip-path:url(#SVGID_00000087370936569732169570000010705876368435605892_);fill:#975CFA;}
	.st112{clip-path:url(#SVGID_00000087370936569732169570000010705876368435605892_);fill:#FFFFFF;}
	.st113{clip-path:url(#SVGID_00000087370936569732169570000010705876368435605892_);fill:#8D41F1;}
	
		.st114{clip-path:url(#SVGID_00000087370936569732169570000010705876368435605892_);fill:none;stroke:#F3B900;stroke-width:3;stroke-miterlimit:10;}
	.st115{clip-path:url(#SVGID_00000087370936569732169570000010705876368435605892_);fill:#3D74FF;}
	.st116{clip-path:url(#SVGID_00000087370936569732169570000010705876368435605892_);fill:#F3B900;}
	
		.st117{clip-path:url(#SVGID_00000087370936569732169570000010705876368435605892_);fill:none;stroke:#0847FD;stroke-width:3;stroke-miterlimit:10;}
	.st118{clip-path:url(#SVGID_00000087370936569732169570000010705876368435605892_);fill:#002CF2;}
</style>
  </defs>
  <path class="st32" d="M196.51,419.12c-1.48-3.43-3.21-6.66-5.21-9.68c-20.31,13.6-46.98,29.94-80.83,46.68 c35.41-13.14,65.59-21.36,89.4-26.79C199.09,425.89,197.96,422.47,196.51,419.12z M190.18,479.84c-7,5.06-14.64,9.42-22.86,12.96 c-16.64,7.18-34.31,10.38-51.41,9.97h-0.17c0.49,0.17,0.95,0.38,1.45,0.52c0.43,0.17,0.87,0.35,1.3,0.49 c3.59,1.22,7.29,2.09,11.05,2.65c0.69,0.12,1.39,0.2,2.05,0.26c0.14,0.06,0.26,0.06,0.41,0.06c0.69,0.06,1.39,0.15,2.08,0.17 c0.75,0.06,1.5,0.12,2.29,0.15c9.08,0.38,18.31-1.22,27.05-5c2.11-0.9,4.17-1.95,6.16-3.08c0.67-0.38,1.3-0.76,1.97-1.16 c0.23-0.15,0.46-0.29,0.67-0.44c0.58-0.38,1.19-0.76,1.76-1.16c1.94-1.31,3.79-2.7,5.55-4.21c0.58-0.49,1.16-1.02,1.74-1.54 c0.55-0.52,1.13-1.05,1.65-1.57c0.55-0.55,1.1-1.1,1.62-1.66c1.04-1.1,2.05-2.24,3.01-3.43c0.98-1.16,1.91-2.38,2.72-3.63 c0.23-0.29,0.43-0.58,0.61-0.87L190.18,479.84z M85.85,478.64c2.84,4.3,6.13,8.2,9.81,11.6c18.98-7.88,51.56-22.93,70.56-40.46 C128.93,462.69,116.26,466.35,85.85,478.64z M201.58,441.1c-14.47,11.48-39.58,29.09-81.3,52.6 c29.28-6.71,47.07-13.46,78.11-29.64c0-0.03,0.03-0.03,0.03-0.03l0-0.09c0.29-0.84,0.52-1.66,0.78-2.5 c0.23-0.84,0.46-1.69,0.67-2.53c0.2-0.84,0.38-1.71,0.55-2.56c0.17-0.87,0.32-1.71,0.46-2.59c0.26-1.71,0.46-3.43,0.61-5.17v-0.09 c0.06-0.87,0.12-1.74,0.14-2.64c0.03-0.61,0.06-1.22,0.03-1.83c0.03-0.99,0.03-2.01,0-2.99 C201.63,441.07,201.61,441.1,201.58,441.1z M145.68,381.34c-0.55-0.09-1.1-0.15-1.65-0.17c-1.19-0.15-2.37-0.2-3.56-0.23 c-8.94-0.38-18.02,1.22-26.73,4.97c-1.53,0.67-3.04,1.37-4.48,2.18c-0.69,0.38-1.39,0.73-2.08,1.13c-1.36,0.78-2.66,1.6-3.96,2.47 c-0.67,0.44-1.3,0.87-1.91,1.34c-0.06,0.03-0.12,0.06-0.14,0.12c-0.61,0.44-1.19,0.9-1.79,1.37c-1.85,1.42-3.56,2.94-5.18,4.59 c-0.43,0.41-0.87,0.84-1.3,1.31c-0.29,0.26-0.52,0.52-0.78,0.81c-0.35,0.41-0.69,0.78-1.07,1.19c-1.01,1.13-1.97,2.33-2.86,3.55 c-0.46,0.61-0.9,1.22-1.33,1.83c-0.43,0.64-0.87,1.25-1.27,1.89c-0.43,0.64-0.84,1.28-1.19,1.92c-0.38,0.64-0.75,1.31-1.13,1.98 c-0.72,1.31-1.39,2.67-2.03,4.04c-0.35,0.76-0.67,1.51-0.98,2.27c11.49-12.82,26.18-23.22,42.91-30.43 c8.22-3.55,16.61-6.1,25.05-7.76C147.36,381.54,146.52,381.42,145.68,381.34z M75.44,443.5c-0.03,5,0.52,10.06,1.76,15.08 c29.86-13.72,41.23-20.43,76.23-38.71C127.6,421.68,94.16,435.13,75.44,443.5z M164.95,386.71 c-32.92,11.45-49.94,19.73-74.85,36.39c45.51-14.15,75.42-20.31,93.68-23.02C178.35,394.45,171.92,389.97,164.95,386.71z" style=""/>
</svg>